HIERARCHY
ROOT Hips
{
	OFFSET 0.000000 0.000000 0.000000
	CHANNELS 6 Xposition Yposition Zposition Xrotation Yrotation Zrotation
	JOINT Thigh.L
	{
		OFFSET 0.054163 0.029738 -0.092062
		CHANNELS 3 Xrotation Yrotation Zrotation
		JOINT Shin.L
		{
			OFFSET 0.055642 0.012335 -0.404737
			CHANNELS 3 Xrotation Yrotation Zrotation
			JOINT Foot.L
			{
				OFFSET -0.041990 0.031806 -0.425949
				CHANNELS 3 Xrotation Yrotation Zrotation
				JOINT Toe.L
				{
					OFFSET 0.045790 -0.120716 -0.063020
					CHANNELS 3 Xrotation Yrotation Zrotation
					End Site
					{
						OFFSET 0.000000 0.050000 0.000000
					}
				}
			}
		}
	}
	JOINT Thigh.R
	{
		OFFSET -0.059397 0.025988 -0.103096
		CHANNELS 3 Xrotation Yrotation Zrotation
		JOINT Shin.R
		{
			OFFSET -0.044894 0.018648 -0.387885
			CHANNELS 3 Xrotation Yrotation Zrotation
			JOINT Foot.R
			{
				OFFSET 0.015398 0.020281 -0.434707
				CHANNELS 3 Xrotation Yrotation Zrotation
				JOINT Toe.R
				{
					OFFSET -0.037842 -0.121509 -0.063017
					CHANNELS 3 Xrotation Yrotation Zrotation
					End Site
					{
						OFFSET 0.000000 0.050000 0.000000
					}
				}
			}
		}
	}
	JOINT Spine
	{
		OFFSET -0.002298 0.021581 0.109327
		CHANNELS 3 Xrotation Yrotation Zrotation
		JOINT Spine.2
		{
			OFFSET 0.007400 0.003653 0.135470
			CHANNELS 3 Xrotation Yrotation Zrotation
			JOINT Chest
			{
				OFFSET -0.010389 -0.022990 0.051413
				CHANNELS 3 Xrotation Yrotation Zrotation
				JOINT Neck
				{
					OFFSET -0.010302 0.027369 0.165093
					CHANNELS 3 Xrotation Yrotation Zrotation
					JOINT Head
					{
						OFFSET 0.023324 -0.022012 0.168859
						CHANNELS 3 Xrotation Yrotation Zrotation
						End Site
						{
							OFFSET 0.000000 0.050000 0.000000
						}
					}
				}
				JOINT Clavicle.L
				{
					OFFSET 0.044559 0.006689 0.084596
					CHANNELS 3 Xrotation Yrotation Zrotation
					JOINT UpperArm.L
					{
						OFFSET 0.113214 0.014356 0.059858
						CHANNELS 3 Xrotation Yrotation Zrotation
						JOINT ForeArm.L
						{
							OFFSET 0.263664 0.037464 -0.075150
							CHANNELS 3 Xrotation Yrotation Zrotation
							JOINT Hand.L
							{
								OFFSET 0.263794 0.004342 0.021362
								CHANNELS 3 Xrotation Yrotation Zrotation
								JOINT Thumb1.L
								{
									OFFSET 0.154592 0.001968 0.009685
									CHANNELS 3 Xrotation Yrotation Zrotation
									JOINT Thumb2.L
									{
										OFFSET 0.029898 0.000492 0.002421
										CHANNELS 3 Xrotation Yrotation Zrotation
										End Site
										{
											OFFSET 0.024915 0.000410 0.002018
										}
									}
								}
								JOINT Index1.L
								{
									OFFSET 0.137592 0.001968 0.009685
									CHANNELS 3 Xrotation Yrotation Zrotation
									JOINT Index2.L
									{
										OFFSET 0.029898 0.000492 0.002421
										CHANNELS 3 Xrotation Yrotation Zrotation
										JOINT Index3.L
										{
											OFFSET 0.021925 0.000361 0.001775
											CHANNELS 3 Xrotation Yrotation Zrotation
											End Site
											{
												OFFSET 0.017939 0.000295 0.001453
											}
										}
									}
								}
								JOINT Middle1.L
								{
									OFFSET 0.119592 0.001968 0.009685
									CHANNELS 3 Xrotation Yrotation Zrotation
									JOINT Middle2.L
									{
										OFFSET 0.030895 0.000508 0.002502
										CHANNELS 3 Xrotation Yrotation Zrotation
										JOINT Middle3.L
										{
											OFFSET 0.021925 0.000361 0.001775
											CHANNELS 3 Xrotation Yrotation Zrotation
											End Site
											{
												OFFSET 0.017939 0.000295 0.001453
											}
										}
									}
								}
								JOINT Ring1.L
								{
									OFFSET 0.101592 0.001968 0.009685
									CHANNELS 3 Xrotation Yrotation Zrotation
									JOINT Ring2.L
									{
										OFFSET 0.028901 0.000476 0.002340
										CHANNELS 3 Xrotation Yrotation Zrotation
										JOINT Ring3.L
										{
											OFFSET 0.019932 0.000328 0.001614
											CHANNELS 3 Xrotation Yrotation Zrotation
											End Site
											{
												OFFSET 0.016942 0.000279 0.001372
											}
										}
									}
								}
								JOINT Pinky1.L
								{
									OFFSET 0.085592 0.001968 0.009685
									CHANNELS 3 Xrotation Yrotation Zrotation
									JOINT Pinky2.L
									{
										OFFSET 0.023918 0.000394 0.001937
										CHANNELS 3 Xrotation Yrotation Zrotation
										JOINT Pinky3.L
										{
											OFFSET 0.016942 0.000279 0.001372
											CHANNELS 3 Xrotation Yrotation Zrotation
											End Site
											{
												OFFSET 0.013952 0.000230 0.001130
											}
										}
									}
								}
							}
						}
					}
				}
				JOINT Clavicle.R
				{
					OFFSET -0.043593 0.012761 0.083930
					CHANNELS 3 Xrotation Yrotation Zrotation
					JOINT UpperArm.R
					{
						OFFSET -0.097926 0.009744 0.055763
						CHANNELS 3 Xrotation Yrotation Zrotation
						JOINT ForeArm.R
						{
							OFFSET -0.280306 0.024093 -0.041609
							CHANNELS 3 Xrotation Yrotation Zrotation
							JOINT Hand.R
							{
								OFFSET -0.260479 0.017136 -0.004244
								CHANNELS 3 Xrotation Yrotation Zrotation
								JOINT Thumb1.R
								{
									OFFSET -0.154725 0.007877 -0.001951
									CHANNELS 3 Xrotation Yrotation Zrotation
									JOINT Thumb2.R
									{
										OFFSET -0.029931 0.001969 -0.000488
										CHANNELS 3 Xrotation Yrotation Zrotation
										End Site
										{
											OFFSET -0.024943 0.001641 -0.000406
										}
									}
								}
								JOINT Index1.R
								{
									OFFSET -0.137725 0.007877 -0.001951
									CHANNELS 3 Xrotation Yrotation Zrotation
									JOINT Index2.R
									{
										OFFSET -0.029931 0.001969 -0.000488
										CHANNELS 3 Xrotation Yrotation Zrotation
										JOINT Index3.R
										{
											OFFSET -0.021950 0.001444 -0.000358
											CHANNELS 3 Xrotation Yrotation Zrotation
											End Site
											{
												OFFSET -0.017959 0.001181 -0.000293
											}
										}
									}
								}
								JOINT Middle1.R
								{
									OFFSET -0.119725 0.007877 -0.001951
									CHANNELS 3 Xrotation Yrotation Zrotation
									JOINT Middle2.R
									{
										OFFSET -0.030929 0.002035 -0.000504
										CHANNELS 3 Xrotation Yrotation Zrotation
										JOINT Middle3.R
										{
											OFFSET -0.021950 0.001444 -0.000358
											CHANNELS 3 Xrotation Yrotation Zrotation
											End Site
											{
												OFFSET -0.017959 0.001181 -0.000293
											}
										}
									}
								}
								JOINT Ring1.R
								{
									OFFSET -0.101725 0.007877 -0.001951
									CHANNELS 3 Xrotation Yrotation Zrotation
									JOINT Ring2.R
									{
										OFFSET -0.028934 0.001903 -0.000471
										CHANNELS 3 Xrotation Yrotation Zrotation
										JOINT Ring3.R
										{
											OFFSET -0.019954 0.001313 -0.000325
											CHANNELS 3 Xrotation Yrotation Zrotation
											End Site
											{
												OFFSET -0.016961 0.001116 -0.000276
											}
										}
									}
								}
								JOINT Pinky1.R
								{
									OFFSET -0.085725 0.007877 -0.001951
									CHANNELS 3 Xrotation Yrotation Zrotation
									JOINT Pinky2.R
									{
										OFFSET -0.023945 0.001575 -0.000390
										CHANNELS 3 Xrotation Yrotation Zrotation
										JOINT Pinky3.R
										{
											OFFSET -0.016961 0.001116 -0.000276
											CHANNELS 3 Xrotation Yrotation Zrotation
											End Site
											{
												OFFSET -0.013968 0.000919 -0.000228
											}
										}
									}
								}
							}
						}
					}
				}
			}
		}
	}
}
MOTION
Frames: 4
Frame Time: 0.04166667
-0.002227222 -0.056664219 1.501088 -8.244540 0.823463 0.870856 5.183816 0.652740 1.013492 5.977184 0.777519 -2.761898 -4.196180 1.465599 11.777931 2.349097 -3.401910 0.091694 1.149372 -0.542816 0.641910 12.623833 -0.222843 -0.244735 -2.591154 -1.616031 -6.365902 0.698319 -1.738224 -0.641575 2.579895 -0.054910 2.185988 10.097117 -3.874805 -3.319280 -7.754687 1.926337 1.053315 8.391337 4.402949 1.835445 -2.564327 -4.281243 6.147590 9.746387 20.543587 -2.611042 19.221536 48.648578 -20.025869 14.028156 -3.863609 -22.836894 6.653864 -5.698020 -13.084606 0.000000 0.000000 0.000000 0.000000 0.000000 0.000000 0.000000 0.000000 0.000000 0.000000 0.000000 0.000000 0.000000 0.000000 0.000000 0.000000 0.000000 0.000000 0.000000 0.000000 0.000000 0.000000 0.000000 0.000000 0.000000 0.000000 0.000000 0.000000 0.000000 0.000000 0.000000 0.000000 0.000000 0.000000 0.000000 0.000000 0.000000 0.000000 0.000000 0.000000 0.000000 0.000000 7.265900 -10.430099 6.357845 28.234706 -56.018637 24.717231 12.168229 5.014723 28.184903 0.693370 5.757476 8.405853 0.000000 0.000000 0.000000 0.000000 0.000000 0.000000 0.000000 0.000000 0.000000 0.000000 0.000000 0.000000 0.000000 0.000000 0.000000 0.000000 0.000000 0.000000 0.000000 0.000000 0.000000 0.000000 0.000000 0.000000 0.000000 0.000000 0.000000 0.000000 0.000000 0.000000 0.000000 0.000000 0.000000 0.000000 0.000000 0.000000 0.000000 0.000000 0.000000 0.000000 0.000000 0.000000
-0.002329101 -0.057319355 1.501259 -8.402819 0.801069 0.787827 5.347866 0.680434 1.042782 6.138109 0.781767 -2.771254 -4.282842 1.406245 11.809284 2.330734 -3.422834 0.096363 1.287635 -0.517176 0.597204 12.793605 -0.187906 -0.210856 -2.645167 -1.618608 -6.323203 0.679355 -1.752178 -0.651284 2.485826 -0.082907 2.180178 10.060098 -3.853628 -3.308066 -7.626263 1.965201 1.011789 8.330937 4.332678 1.945887 -2.440614 -4.132709 6.105137 9.690890 20.581722 -2.497573 19.286519 48.670974 -19.940002 14.110365 -3.908986 -22.769970 6.735842 -5.740801 -13.147219 0.000000 0.000000 0.000000 0.000000 0.000000 0.000000 0.000000 0.000000 0.000000 0.000000 0.000000 0.000000 0.000000 0.000000 0.000000 0.000000 0.000000 0.000000 0.000000 0.000000 0.000000 0.000000 0.000000 0.000000 0.000000 0.000000 0.000000 0.000000 0.000000 0.000000 0.000000 0.000000 0.000000 0.000000 0.000000 0.000000 0.000000 0.000000 0.000000 0.000000 0.000000 0.000000 7.148574 -10.494877 6.306609 28.427994 -56.050065 24.755482 12.216318 5.133211 28.128849 0.617900 5.878349 8.493389 0.000000 0.000000 0.000000 0.000000 0.000000 0.000000 0.000000 0.000000 0.000000 0.000000 0.000000 0.000000 0.000000 0.000000 0.000000 0.000000 0.000000 0.000000 0.000000 0.000000 0.000000 0.000000 0.000000 0.000000 0.000000 0.000000 0.000000 0.000000 0.000000 0.000000 0.000000 0.000000 0.000000 0.000000 0.000000 0.000000 0.000000 0.000000 0.000000 0.000000 0.000000 0.000000
-0.002394575 -0.057750228 1.501405 -8.534071 0.810299 0.744347 5.556607 0.676752 1.058238 6.114793 0.775930 -2.781655 -4.331245 1.369857 11.820585 2.342979 -3.393125 0.097377 1.440542 -0.506169 0.581165 12.855513 -0.192655 -0.212892 -2.659973 -1.623273 -6.258583 0.665320 -1.737738 -0.648259 2.363189 -0.057644 2.201263 10.131486 -3.882403 -3.305933 -7.640816 2.000379 1.017382 8.376250 4.285677 1.931481 -2.421054 -4.116811 6.042639 9.673344 20.637940 -2.382423 19.335239 48.650728 -19.845693 14.155611 -3.967581 -22.823799 6.793403 -5.669565 -13.194769 0.000000 0.000000 0.000000 0.000000 0.000000 0.000000 0.000000 0.000000 0.000000 0.000000 0.000000 0.000000 0.000000 0.000000 0.000000 0.000000 0.000000 0.000000 0.000000 0.000000 0.000000 0.000000 0.000000 0.000000 0.000000 0.000000 0.000000 0.000000 0.000000 0.000000 0.000000 0.000000 0.000000 0.000000 0.000000 0.000000 0.000000 0.000000 0.000000 0.000000 0.000000 0.000000 7.145694 -10.567399 6.254357 28.479923 -56.046930 24.686148 12.273917 5.173338 28.147120 0.598625 5.880777 8.567192 0.000000 0.000000 0.000000 0.000000 0.000000 0.000000 0.000000 0.000000 0.000000 0.000000 0.000000 0.000000 0.000000 0.000000 0.000000 0.000000 0.000000 0.000000 0.000000 0.000000 0.000000 0.000000 0.000000 0.000000 0.000000 0.000000 0.000000 0.000000 0.000000 0.000000 0.000000 0.000000 0.000000 0.000000 0.000000 0.000000 0.000000 0.000000 0.000000 0.000000 0.000000 0.000000
-0.002543750 -0.057920050 1.501513 -8.631654 0.813938 0.714072 5.724249 0.677631 1.059189 6.060480 0.760580 -2.782274 -4.356124 1.342935 11.837971 2.361940 -3.352006 0.094315 1.549827 -0.512359 0.571091 12.892000 -0.183386 -0.235997 -2.655995 -1.620631 -6.228280 0.647061 -1.707421 -0.639518 2.253024 -0.029652 2.225604 10.250189 -3.929961 -3.302604 -7.761625 2.036896 1.030624 8.439176 4.294272 1.900889 -2.379770 -4.100304 6.023061 9.714537 20.734623 -2.284000 19.335203 48.614564 -19.741627 14.093332 -4.037081 -22.869569 6.882972 -5.573914 -13.232134 0.000000 0.000000 0.000000 0.000000 0.000000 0.000000 0.000000 0.000000 0.000000 0.000000 0.000000 0.000000 0.000000 0.000000 0.000000 0.000000 0.000000 0.000000 0.000000 0.000000 0.000000 0.000000 0.000000 0.000000 0.000000 0.000000 0.000000 0.000000 0.000000 0.000000 0.000000 0.000000 0.000000 0.000000 0.000000 0.000000 0.000000 0.000000 0.000000 0.000000 0.000000 0.000000 7.197128 -10.642769 6.210011 28.500804 -56.047337 24.607494 12.334074 5.226557 28.179672 0.641867 5.848353 8.620468 0.000000 0.000000 0.000000 0.000000 0.000000 0.000000 0.000000 0.000000 0.000000 0.000000 0.000000 0.000000 0.000000 0.000000 0.000000 0.000000 0.000000 0.000000 0.000000 0.000000 0.000000 0.000000 0.000000 0.000000 0.000000 0.000000 0.000000 0.000000 0.000000 0.000000 0.000000 0.000000 0.000000 0.000000 0.000000 0.000000 0.000000 0.000000 0.000000 0.000000 0.000000 0.000000
